<?xml version="1.0" standalone="no"?>
<!DOCTYPE svg PUBLIC "-//W3C//DTD SVG 20010904//EN"
 "http://www.w3.org/TR/2001/REC-SVG-20010904/DTD/svg10.dtd">
<svg version="1.0" xmlns="http://www.w3.org/2000/svg"
 width="1784.000000pt" height="1784.000000pt" viewBox="0 0 1784.000000 1784.000000"
 preserveAspectRatio="xMidYMid meet">
<metadata>
Created by potrace 1.11, written by Peter Selinger 2001-2013
</metadata>
<g transform="translate(0.000000,1784.000000) scale(0.100000,-0.100000)"
fill="#000000" stroke="none">
<path d="M8757 17834 c-1 -1 -54 -5 -117 -8 -169 -9 -288 -19 -405 -32 -22 -2
-62 -6 -90 -9 -46 -5 -89 -11 -155 -20 -14 -2 -45 -6 -70 -10 -60 -7 -198 -33
-285 -52 -38 -8 -81 -17 -95 -19 -109 -20 -438 -122 -597 -185 -168 -67 -382
-171 -511 -250 -40 -24 -81 -49 -90 -54 -53 -31 -191 -130 -286 -205 -40 -31
-209 -184 -249 -225 -189 -193 -379 -442 -488 -641 -116 -212 -173 -334 -244
-524 -35 -93 -111 -333 -119 -375 -47 -230 -80 -286 -227 -385 -120 -81 -261
-209 -324 -295 -17 -22 -33 -42 -37 -45 -20 -15 -123 -206 -153 -284 -63 -164
-79 -252 -102 -561 -3 -44 -6 -429 -7 -855 -1 -764 -1 -776 -22 -820 -31 -67
-64 -101 -182 -186 -294 -214 -536 -448 -692 -674 -14 -19 -28 -39 -33 -45
-61 -75 -198 -335 -261 -497 -53 -134 -105 -319 -121 -428 -4 -24 -8 -47 -10
-50 -1 -3 -6 -36 -10 -73 -3 -37 -8 -78 -11 -90 -16 -85 -27 -1153 -27 -2632
1 -1324 9 -2681 18 -2735 51 -317 151 -526 344 -720 103 -103 125 -122 216
-182 139 -92 381 -196 497 -213 23 -4 45 -8 48 -10 24 -15 218 -27 400 -25
431 5 423 5 465 -16 27 -13 46 -32 59 -58 18 -38 19 -83 21 -1390 1 -1434 0
-1383 45 -1516 84 -245 280 -396 555 -428 81 -9 6946 -9 7015 1 263 36 450
160 536 354 32 72 62 187 71 273 10 91 9 2274 -1 2390 -21 255 6 349 115 394
53 22 176 22 330 1 74 -11 331 -5 439 10 25 4 56 8 70 10 107 14 304 79 405
132 102 54 122 66 195 120 153 113 298 291 381 467 37 79 83 212 93 268 2 15
7 31 9 35 3 5 8 33 11 64 4 31 9 67 12 80 20 90 20 4399 0 5114 -4 141 -12
227 -28 320 -5 33 -12 72 -13 87 -17 131 -107 417 -182 582 -69 150 -201 372
-269 453 -11 12 -44 54 -74 92 -121 155 -377 388 -594 541 -106 75 -138 107
-168 169 l-23 46 -1 814 c-1 448 -4 855 -8 905 -10 154 -42 309 -93 449 -26
74 -100 228 -113 237 -4 3 -13 16 -20 30 -60 115 -243 294 -420 412 -58 39
-94 71 -112 101 -22 35 -54 136 -93 297 -13 51 -51 177 -75 250 -386 1144
-1189 1849 -2470 2170 -85 21 -168 41 -185 44 -26 4 -60 10 -165 31 -14 3 -45
8 -70 11 -25 3 -52 7 -60 9 -8 2 -37 7 -65 10 -27 4 -61 8 -75 10 -14 2 -56 7
-95 10 -38 4 -81 8 -95 10 -78 12 -751 29 -763 19z"/>
</g>
</svg>
