<svg id="Layer_1" data-name="Layer 1" xmlns="http://www.w3.org/2000/svg" viewBox="0 0 500 500"><defs><style>.cls-1{fill:#5e5671;}.cls-2{fill:#fff;}.cls-3{fill:#f9f9f9;}.cls-4{fill:#f4f4f4;}</style></defs><title>logo</title><circle class="cls-1" cx="250" cy="250" r="250"/><path class="cls-1" d="M350.75,250.81q0,70.49.06,141c0,2.43-.47,2.9-2.89,2.9q-97.53-.13-195,0c-2.42,0-2.9-.48-2.9-2.89q.12-141.35,0-282.69c0-2.42.48-2.9,2.9-2.89q97.51.12,195.05,0c2.42,0,2.9.47,2.89,2.89Q350.68,180,350.75,250.81ZM249,385.87q25.26,0,50.52,0c8.21,0,12.07-3.87,12.09-12.09,0-10.36,0-20.72,0-31.09,0-2.8-.9-6.54.53-8.18,1.69-1.93,5.54-.42,8.45-.65.46,0,.94,0,1.41,0,12.18-.21,20.83-8.43,20.91-20.59.17-24.84.25-49.69-.09-74.53-.18-14-6.73-24.95-18.29-32.78a4.72,4.72,0,0,1-2.37-4.58c.11-7.29,0-14.6,0-21.9,0-8.43-2.89-15.38-10.34-19.92-1.49-.91-1.82-2.2-2.18-3.76-3.95-16.7-13.2-29-29.43-35.68-14.6-6-29.81-6.55-45.1-4.53-23.58,3.12-41.39,15.93-47,41a5.32,5.32,0,0,1-2.7,3.42,19.87,19.87,0,0,0-9.38,15.7c-.67,8.58-.2,17.17-.26,25.76a4.83,4.83,0,0,1-2.44,4.54c-11.27,7.7-18,18.41-18.21,32.1-.42,25.31-.24,50.63-.08,75.95.06,9,5.53,15.72,14,18.7,4.62,1.62,9.32,1.08,14,1,2.59,0,3.39.6,3.35,3.31-.15,12.48-.11,25,0,37.44,0,7.34,4.11,11.34,11.39,11.34Z"/><path class="cls-2" d="M249,385.87H197.76c-7.28,0-11.35-4-11.39-11.34-.06-12.48-.1-25,0-37.44,0-2.71-.76-3.33-3.35-3.31-4.67,0-9.37.58-14-1-8.47-3-13.94-9.66-14-18.7-.16-25.32-.34-50.64.08-75.95.23-13.69,6.94-24.4,18.21-32.1a4.83,4.83,0,0,0,2.44-4.54c.06-8.59-.41-17.18.26-25.76a19.87,19.87,0,0,1,9.38-15.7,5.32,5.32,0,0,0,2.7-3.42c5.61-25.05,23.42-37.86,47-41,15.29-2,30.5-1.44,45.1,4.53,16.23,6.64,25.48,19,29.43,35.68.36,1.56.69,2.85,2.18,3.76,7.45,4.54,10.34,11.49,10.34,19.92,0,7.3.07,14.61,0,21.9a4.72,4.72,0,0,0,2.37,4.58c11.56,7.83,18.11,18.78,18.29,32.78.34,24.84.26,49.69.09,74.53-.08,12.16-8.73,20.38-20.91,20.59-.47,0-.95,0-1.41,0-2.91.23-6.76-1.28-8.45.65-1.43,1.64-.52,5.38-.53,8.18,0,10.37,0,20.73,0,31.09,0,8.22-3.88,12.08-12.09,12.09Q274.25,385.89,249,385.87Zm41.68-38.44v-28.3q0-33.74,0-67.47c0-7.26,4.21-11.93,10.59-11.9,6.15,0,10.31,4.75,10.33,11.76,0,4,0,8,0,12,0,7.8,0,7.73,7.88,7.54,2-.05,2.62-.6,2.6-2.6-.09-9.19,0-18.37-.05-27.55,0-5.26-.95-10.29-4.35-14.55-5-6.24-21.48-10.17-28.78-6.86a5.57,5.57,0,0,0-.59.4c-10.84,6.64-22.79,9.08-35.32,9.42-15,.41-29.57-1.39-42.72-9.42a5.42,5.42,0,0,0-3-.82c-4.47,0-9-.1-13.4.24a18.9,18.9,0,0,0-17.72,18.59c-.26,8.58-.19,17.18-.23,25.77,0,7.55,0,7.47,7.68,7.39,2.14,0,2.85-.58,2.8-2.78q-.19-9,0-18c.12-6.35,4.58-10.64,10.73-10.55s10.15,4.71,10.16,11.58q.06,33.56,0,67.11v29a41.14,41.14,0,0,1,30.84-.2,4.21,4.21,0,0,0,.27-.73c0-11.07,0-22.13.07-33.2.05-6.42,4.75-11.21,10.76-11.17,5.74,0,10.22,4.86,10.26,11.16.05,7.89,0,15.78,0,23.67V347.4A41.08,41.08,0,0,1,290.67,347.43ZM248.33,135.55a65.21,65.21,0,0,0-19.44,2.71c-10.59,3.39-17.8,10.1-20.31,21.32a60.33,60.33,0,0,0-.74,21c1.5,11.74,7.43,20.23,18.69,24.28,14.63,5.27,29.55,5,44.26.43,11-3.41,17.18-11.45,19.08-22.72a66.23,66.23,0,0,0,.31-19c-1.64-13.68-9.1-22.17-22.33-25.82C261.79,136.13,255.6,135.7,248.33,135.55ZM275,365c4.22,0,8.44.05,12.66,0,1,0,2.79.78,2.88-.91s1.18-4-1-5.45c-7.25-4.9-21.93-4.85-28.91.06-2,1.44-1,3.44-1,5.16s1.72,1.13,2.72,1.14C266.54,365.06,270.76,365,275,365Zm-52.37,0c4.34,0,8.68.05,13,0,1,0,2.75.75,2.74-1.13,0-1.72,1-3.72-1-5.16-6.92-4.92-21.48-5-28.89-.07-2.22,1.46-1.12,3.63-1,5.43s1.86.91,2.87.93C214.4,365.07,218.51,365,222.61,365Zm-41.82-72.88c5.56,0,5.56,0,5.57-4.42,0-6.16,0-6.16-4.18-6.17-6.27,0-6.27,0-6.27,4.78C175.91,292.14,175.91,292.14,180.79,292.14Zm141.26-5c0-5.63,0-5.63-4.37-5.63-6.08,0-6.08,0-6.08,4.62,0,6,0,6,4.72,6C322.05,292.15,322.05,292.15,322.05,287.18ZM181.3,302.67c-6.12.1-5.37-.77-5.37,4.31,0,6.77-.79,5.87,4.51,5.92,5.91.07,5.92,0,5.92-4.88C186.36,302.67,186.36,302.67,181.3,302.67Zm135.69,0c-6.12.1-5.37-.77-5.37,4.32,0,6.77-.77,5.85,4.51,5.91,5.91.07,5.91,0,5.92-4.88C322.05,302.67,322.05,302.67,317,302.67Z"/><path class="cls-1" d="M290.67,347.43a41.08,41.08,0,0,0-31.17,0V337c0-7.89,0-15.78,0-23.67,0-6.3-4.52-11.12-10.26-11.16-6,0-10.71,4.75-10.76,11.17-.08,11.07-.05,22.13-.07,33.2a4.21,4.21,0,0,1-.27.73,41.14,41.14,0,0,0-30.84.2v-29q0-33.56,0-67.11c0-6.87-4.14-11.49-10.16-11.58s-10.61,4.2-10.73,10.55q-.16,9,0,18c0,2.2-.66,2.76-2.8,2.78-7.69.08-7.72.16-7.68-7.39,0-8.59,0-17.19.23-25.77a18.9,18.9,0,0,1,17.72-18.59c4.45-.34,8.93-.19,13.4-.24a5.42,5.42,0,0,1,3,.82c13.15,8,27.69,9.83,42.72,9.42,12.53-.34,24.48-2.78,35.32-9.42a5.57,5.57,0,0,1,.59-.4c7.3-3.31,23.8.62,28.78,6.86,3.4,4.26,4.32,9.29,4.35,14.55.05,9.18,0,18.36.05,27.55,0,2-.63,2.55-2.6,2.6-7.88.19-7.88.26-7.88-7.54,0-4,0-8,0-12,0-7-4.18-11.73-10.33-11.76-6.38,0-10.58,4.64-10.59,11.9q0,33.73,0,67.47Zm-41.74-65.88c3.64,0,7.29,0,10.94,0,5.28-.06,8.95-3.11,9.68-8.32a53.82,53.82,0,0,0,0-14.4c-.63-5-3.91-8.2-8.9-8.33-7.76-.22-15.53-.21-23.28,0-5,.13-8.35,3.24-9,8.25a51.63,51.63,0,0,0,.12,15.1,9.09,9.09,0,0,0,9.14,7.7C241.4,281.61,245.16,281.55,248.93,281.55Z"/><path class="cls-1" d="M248.33,135.55c7.27.15,13.46.58,19.52,2.24,13.23,3.65,20.69,12.14,22.33,25.82a66.23,66.23,0,0,1-.31,19c-1.9,11.27-8.1,19.31-19.08,22.72-14.71,4.56-29.63,4.84-44.26-.43-11.26-4.05-17.19-12.54-18.69-24.28a60.33,60.33,0,0,1,.74-21c2.51-11.22,9.72-17.93,20.31-21.32A65.21,65.21,0,0,1,248.33,135.55Zm.28,52v0c7.41,0,14.82.13,22.22,0,5.48-.12,9.15-4,9.32-9.48.11-3.29-.12-6.59.06-9.87a15,15,0,0,0-5-12.26c-13.65-12.79-37.43-13.42-52-.95a14.92,14.92,0,0,0-5.46,12.46c.14,3.29,0,6.59,0,9.88.08,6.33,3.68,10.14,10,10.27C234.73,187.71,241.67,187.6,248.61,187.6Z"/><path class="cls-1" d="M275,365c-4.22,0-8.44,0-12.66,0-1,0-2.74.71-2.72-1.14s-1-3.72,1-5.16c7-4.91,21.66-5,28.91-.06,2.19,1.49,1.11,3.65,1,5.45s-1.87.89-2.88.91C283.42,365.07,279.2,365,275,365Z"/><path class="cls-1" d="M222.61,365c-4.1,0-8.21.05-12.31,0-1,0-2.78.78-2.87-.93s-1.18-4,1-5.43c7.41-4.9,22-4.85,28.89.07,2,1.44,1,3.44,1,5.16,0,1.88-1.75,1.11-2.74,1.13C231.29,365.07,227,365,222.61,365Z"/><path class="cls-1" d="M180.79,292.14c-4.88,0-4.88,0-4.88-5.81,0-4.78,0-4.78,6.27-4.78,4.18,0,4.18,0,4.18,6.17C186.35,292.14,186.35,292.14,180.79,292.14Z"/><path class="cls-1" d="M322.05,287.18c0,5,0,5-5.73,5-4.72,0-4.72,0-4.72-6,0-4.62,0-4.62,6.08-4.62C322.05,281.55,322.05,281.55,322.05,287.18Z"/><path class="cls-1" d="M181.3,302.67c5.06,0,5.06,0,5.06,5.35,0,4.9,0,5-5.92,4.88-5.3,0-4.51.85-4.51-5.92C175.93,301.9,175.18,302.77,181.3,302.67Z"/><path class="cls-1" d="M317,302.67c5.06,0,5.06,0,5.06,5.35,0,4.9,0,5-5.92,4.88-5.28-.06-4.51.86-4.51-5.91C311.62,301.9,310.87,302.77,317,302.67Z"/><path class="cls-3" d="M248.93,281.55c-3.77,0-7.53.06-11.3,0a9.09,9.09,0,0,1-9.14-7.7,51.63,51.63,0,0,1-.12-15.1c.66-5,4-8.12,9-8.25,7.75-.2,15.52-.21,23.28,0,5,.13,8.27,3.37,8.9,8.33a53.82,53.82,0,0,1,0,14.4c-.73,5.21-4.4,8.26-9.68,8.32C256.22,281.58,252.57,281.55,248.93,281.55Z"/><path class="cls-4" d="M248.61,187.6c-6.94,0-13.88.11-20.81,0-6.33-.13-9.93-3.94-10-10.27,0-3.29.11-6.59,0-9.88A14.92,14.92,0,0,1,223.22,155c14.53-12.47,38.31-11.84,52,.95a15,15,0,0,1,5,12.26c-.18,3.28.05,6.58-.06,9.87-.17,5.5-3.84,9.36-9.32,9.48-7.4.17-14.81,0-22.22,0Z"/></svg>